<svg xmlns="http://www.w3.org/2000/svg" viewBox="0 0 1200 750" width="1200" height="750" role="img"><title>Analiza danych i decyzje</title><defs><filter id="shadow" x="-30%" y="-30%" width="170%" height="180%"><feDropShadow dx="0" dy="16" stdDeviation="15" flood-color="#202826" flood-opacity=".12"/></filter></defs><rect x="0" y="0" width="1200" height="750" fill="#e4e7df" /><g transform="rotate(-3 600 375)" filter="url(#shadow)"><rect x="335" y="170" width="530" height="405" fill="#fcfaf5" /><path d="M375 220h160" stroke="#202826" stroke-width="5"/><path d="M375 247h110" stroke="#b8b8ab" stroke-width="5"/><rect x="400" y="390" width="75" height="115" fill="#b8c1b1" /><rect x="505" y="326" width="75" height="179" fill="#202826" /><rect x="610" y="260" width="75" height="245" fill="#c93820" /><rect x="715" y="348" width="75" height="157" fill="#d9d2c3" /><path d="M375 523h450" stroke="#d4d5cb" stroke-width="5"/></g><circle cx="797" cy="268" r="88" fill="#fcfaf5" stroke="#202826" stroke-width="12"/><path d="m860 331 61 64" stroke="#202826" stroke-width="25" stroke-linecap="round"/><rect x="754" y="274" width="22" height="38" fill="#b8c1b1" /><rect x="786" y="244" width="22" height="68" fill="#c93820" /><rect x="818" y="259" width="22" height="53" fill="#202826" /><path d="M80 650h25v-25M1120 100h-25v25" fill="none" stroke="#202826" stroke-width="2" opacity=".22"/></svg>