<svg xmlns="http://www.w3.org/2000/svg" width="148.0mm" height="210.0mm" viewBox="0 0 419.52755905511816 595.2755905511812"><rect x="-8.503937007874017" y="-8.503937007874017" width="436.5354330708662" height="612.2834645669292" fill="#f5f2ed"/><polygon points="32.480000000000004,25.0 41.44,25.0 41.44,37.88 37.52,37.88 37.52,28.92 32.480000000000004,28.92" fill="#c93820"/><polygon points="28.0,32.28 31.92,32.28 31.92,41.24 36.96,41.24 36.96,45.160000000000004 28.0,45.160000000000004" fill="#c93820"/><text x="50.44" y="39.879999999999995" font-family="Arial" font-size="12" font-weight="700" font-style="normal" fill="#151719">zautomatyzujemy.pl</text><text x="28" y="82.806" font-family="Arial" font-size="8.3" font-weight="700" font-style="normal" fill="#c93820">AUTOMATYZACJE DLA FIRM</text><text x="27" y="126.96" font-family="Arial" font-size="28" font-weight="700" font-style="normal" fill="#151719">Mniej ręcznej</text><text x="27" y="160.96" font-family="Arial" font-size="28" font-weight="700" font-style="normal" fill="#151719">pracy.</text><text x="27" y="194.96" font-family="Georgia" font-size="28" font-weight="400" font-style="italic" fill="#c93820">Więcej czasu.</text><text x="28" y="230.856" font-family="Arial" font-size="10.8" font-weight="400" font-style="normal" fill="#151719">Łączę narzędzia, których już używasz, i porządkuję powtarzalne zadania w</text><text x="28" y="245.856" font-family="Arial" font-size="10.8" font-weight="400" font-style="normal" fill="#151719">Twojej firmie.</text><rect x="28" y="293" width="363.52755905511816" height="36" fill="#ffffff"/><text x="39" y="312.38" font-family="Arial" font-size="9" font-weight="700" font-style="normal" fill="#c93820">01</text><text x="70" y="313.2" font-family="Arial" font-size="10" font-weight="400" font-style="normal" fill="#151719">Zapytanie od klienta</text><line x1="48" y1="330" x2="48" y2="338" stroke="#c93820" stroke-width="1"/><rect x="28" y="339" width="363.52755905511816" height="36" fill="#ffffff"/><text x="39" y="358.38" font-family="Arial" font-size="9" font-weight="700" font-style="normal" fill="#c93820">02</text><text x="70" y="359.2" font-family="Arial" font-size="10" font-weight="400" font-style="normal" fill="#151719">Dane trafiają do właściwej osoby</text><line x1="48" y1="376" x2="48" y2="384" stroke="#c93820" stroke-width="1"/><rect x="28" y="385" width="363.52755905511816" height="36" fill="#ffffff"/><text x="39" y="404.38" font-family="Arial" font-size="9" font-weight="700" font-style="normal" fill="#c93820">03</text><text x="70" y="405.2" font-family="Arial" font-size="10" font-weight="400" font-style="normal" fill="#151719">Sprawa ma swój następny krok</text><text x="28" y="441.56" font-family="Arial" font-size="8" font-weight="400" font-style="normal" fill="#62625d">Przykładowy przebieg do dopasowania.</text><line x1="28" y1="460" x2="391.52755905511816" y2="460" stroke="#d9d6d0" stroke-width="0.7"/><text x="28" y="488.84" font-family="Arial" font-size="12" font-weight="700" font-style="normal" fill="#151719">Porozmawiajmy o Twojej firmie.</text><text x="28" y="509.2" font-family="Arial" font-size="10" font-weight="400" font-style="normal" fill="#151719">Bezpłatna konsultacja</text><text x="28" y="535.02" font-family="Arial" font-size="11" font-weight="700" font-style="normal" fill="#c93820">+48 730 094 465</text><text x="28" y="556.2" font-family="Arial" font-size="10" font-weight="400" font-style="normal" fill="#151719">zautomatyzujemy.pl</text><rect x="319.52755905511816" y="482" width="71" height="71" fill="#ffffff"/><rect x="327.20323473079384" y="489.6756756756757" width="1.9339189189189188" height="1.9339189189189188" fill="#000000"/><rect x="329.12215364971274" y="489.6756756756757" width="1.9339189189189188" height="1.9339189189189188" fill="#000000"/><rect x="331.04107256863165" y="489.6756756756757" width="1.9339189189189188" height="1.9339189189189188" fill="#000000"/><rect x="332.9599914875506" y="489.6756756756757" width="1.9339189189189188" height="1.9339189189189188" fill="#000000"/><rect x="334.8789104064695" y="489.6756756756757" width="1.9339189189189188" height="1.9339189189189188" fill="#000000"/><rect x="336.7978293253884" y="489.6756756756757" width="1.9339189189189188" height="1.9339189189189188" fill="#000000"/><rect x="338.7167482443073" y="489.6756756756757" width="1.9339189189189188" height="1.9339189189189188" fill="#000000"/><rect x="346.392423919983" y="489.6756756756757" width="1.9339189189189188" height="1.9339189189189188" fill="#000000"/><rect x="350.23026175782087" y="489.6756756756757" width="1.9339189189189188" height="1.9339189189189188" fill="#000000"/><rect x="355.98701851457764" y="489.6756756756757" width="1.9339189189189188" height="1.9339189189189188" fill="#000000"/><rect x="357.90593743349655" y="489.6756756756757" width="1.9339189189189188" height="1.9339189189189188" fill="#000000"/><rect x="359.82485635241545" y="489.6756756756757" width="1.9339189189189188" height="1.9339189189189188" fill="#000000"/><rect x="363.6626941902533" y="489.6756756756757" width="1.9339189189189188" height="1.9339189189189188" fill="#000000"/><rect x="365.5816131091722" y="489.6756756756757" width="1.9339189189189188" height="1.9339189189189188" fill="#000000"/><rect x="369.41945094701003" y="489.6756756756757" width="1.9339189189189188" height="1.9339189189189188" fill="#000000"/><rect x="371.33836986592894" y="489.6756756756757" width="1.9339189189189188" height="1.9339189189189188" fill="#000000"/><rect x="373.2572887848479" y="489.6756756756757" width="1.9339189189189188" height="1.9339189189189188" fill="#000000"/><rect x="375.1762077037668" y="489.6756756756757" width="1.9339189189189188" height="1.9339189189189188" fill="#000000"/><rect x="377.0951266226857" y="489.6756756756757" width="1.9339189189189188" height="1.9339189189189188" fill="#000000"/><rect x="379.0140455416047" y="489.6756756756757" width="1.9339189189189188" height="1.9339189189189188" fill="#000000"/><rect x="380.9329644605236" y="489.6756756756757" width="1.9339189189189188" height="1.9339189189189188" fill="#000000"/><rect x="327.20323473079384" y="491.5945945945946" width="1.9339189189189188" height="1.9339189189189188" fill="#000000"/><rect x="338.7167482443073" y="491.5945945945946" width="1.9339189189189188" height="1.9339189189189188" fill="#000000"/><rect x="344.4735050010641" y="491.5945945945946" width="1.9339189189189188" height="1.9339189189189188" fill="#000000"/><rect x="346.392423919983" y="491.5945945945946" width="1.9339189189189188" height="1.9339189189189188" fill="#000000"/><rect x="348.31134283890196" y="491.5945945945946" width="1.9339189189189188" height="1.9339189189189188" fill="#000000"/><rect x="361.74377527133436" y="491.5945945945946" width="1.9339189189189188" height="1.9339189189189188" fill="#000000"/><rect x="365.5816131091722" y="491.5945945945946" width="1.9339189189189188" height="1.9339189189189188" fill="#000000"/><rect x="369.41945094701003" y="491.5945945945946" width="1.9339189189189188" height="1.9339189189189188" fill="#000000"/><rect x="380.9329644605236" y="491.5945945945946" width="1.9339189189189188" height="1.9339189189189188" fill="#000000"/><rect x="327.20323473079384" y="493.5135135135135" width="1.9339189189189188" height="1.9339189189189188" fill="#000000"/><rect x="331.04107256863165" y="493.5135135135135" width="1.9339189189189188" height="1.9339189189189188" fill="#000000"/><rect x="332.9599914875506" y="493.5135135135135" width="1.9339189189189188" height="1.9339189189189188" fill="#000000"/><rect x="334.8789104064695" y="493.5135135135135" width="1.9339189189189188" height="1.9339189189189188" fill="#000000"/><rect x="338.7167482443073" y="493.5135135135135" width="1.9339189189189188" height="1.9339189189189188" fill="#000000"/><rect x="342.5545860821452" y="493.5135135135135" width="1.9339189189189188" height="1.9339189189189188" fill="#000000"/><rect x="344.4735050010641" y="493.5135135135135" width="1.9339189189189188" height="1.9339189189189188" fill="#000000"/><rect x="346.392423919983" y="493.5135135135135" width="1.9339189189189188" height="1.9339189189189188" fill="#000000"/><rect x="348.31134283890196" y="493.5135135135135" width="1.9339189189189188" height="1.9339189189189188" fill="#000000"/><rect x="350.23026175782087" y="493.5135135135135" width="1.9339189189189188" height="1.9339189189189188" fill="#000000"/><rect x="354.0680995956587" y="493.5135135135135" width="1.9339189189189188" height="1.9339189189189188" fill="#000000"/><rect x="357.90593743349655" y="493.5135135135135" width="1.9339189189189188" height="1.9339189189189188" fill="#000000"/><rect x="365.5816131091722" y="493.5135135135135" width="1.9339189189189188" height="1.9339189189189188" fill="#000000"/><rect x="369.41945094701003" y="493.5135135135135" width="1.9339189189189188" height="1.9339189189189188" fill="#000000"/><rect x="373.2572887848479" y="493.5135135135135" width="1.9339189189189188" height="1.9339189189189188" fill="#000000"/><rect x="375.1762077037668" y="493.5135135135135" width="1.9339189189189188" height="1.9339189189189188" fill="#000000"/><rect x="377.0951266226857" y="493.5135135135135" width="1.9339189189189188" height="1.9339189189189188" fill="#000000"/><rect x="380.9329644605236" y="493.5135135135135" width="1.9339189189189188" height="1.9339189189189188" fill="#000000"/><rect x="327.20323473079384" y="495.43243243243245" width="1.9339189189189188" height="1.9339189189189188" fill="#000000"/><rect x="331.04107256863165" y="495.43243243243245" width="1.9339189189189188" height="1.9339189189189188" fill="#000000"/><rect x="332.9599914875506" y="495.43243243243245" width="1.9339189189189188" height="1.9339189189189188" fill="#000000"/><rect x="334.8789104064695" y="495.43243243243245" width="1.9339189189189188" height="1.9339189189189188" fill="#000000"/><rect x="338.7167482443073" y="495.43243243243245" width="1.9339189189189188" height="1.9339189189189188" fill="#000000"/><rect x="342.5545860821452" y="495.43243243243245" width="1.9339189189189188" height="1.9339189189189188" fill="#000000"/><rect x="344.4735050010641" y="495.43243243243245" width="1.9339189189189188" height="1.9339189189189188" fill="#000000"/><rect x="350.23026175782087" y="495.43243243243245" width="1.9339189189189188" height="1.9339189189189188" fill="#000000"/><rect x="359.82485635241545" y="495.43243243243245" width="1.9339189189189188" height="1.9339189189189188" fill="#000000"/><rect x="361.74377527133436" y="495.43243243243245" width="1.9339189189189188" height="1.9339189189189188" fill="#000000"/><rect x="363.6626941902533" y="495.43243243243245" width="1.9339189189189188" height="1.9339189189189188" fill="#000000"/><rect x="369.41945094701003" y="495.43243243243245" width="1.9339189189189188" height="1.9339189189189188" fill="#000000"/><rect x="373.2572887848479" y="495.43243243243245" width="1.9339189189189188" height="1.9339189189189188" fill="#000000"/><rect x="375.1762077037668" y="495.43243243243245" width="1.9339189189189188" height="1.9339189189189188" fill="#000000"/><rect x="377.0951266226857" y="495.43243243243245" width="1.9339189189189188" height="1.9339189189189188" fill="#000000"/><rect x="380.9329644605236" y="495.43243243243245" width="1.9339189189189188" height="1.9339189189189188" fill="#000000"/><rect x="327.20323473079384" y="497.35135135135135" width="1.9339189189189188" height="1.9339189189189188" fill="#000000"/><rect x="331.04107256863165" y="497.35135135135135" width="1.9339189189189188" height="1.9339189189189188" fill="#000000"/><rect x="332.9599914875506" y="497.35135135135135" width="1.9339189189189188" height="1.9339189189189188" fill="#000000"/><rect x="334.8789104064695" y="497.35135135135135" width="1.9339189189189188" height="1.9339189189189188" fill="#000000"/><rect x="338.7167482443073" y="497.35135135135135" width="1.9339189189189188" height="1.9339189189189188" fill="#000000"/><rect x="342.5545860821452" y="497.35135135135135" width="1.9339189189189188" height="1.9339189189189188" fill="#000000"/><rect x="348.31134283890196" y="497.35135135135135" width="1.9339189189189188" height="1.9339189189189188" fill="#000000"/><rect x="352.1491806767398" y="497.35135135135135" width="1.9339189189189188" height="1.9339189189189188" fill="#000000"/><rect x="354.0680995956587" y="497.35135135135135" width="1.9339189189189188" height="1.9339189189189188" fill="#000000"/><rect x="355.98701851457764" y="497.35135135135135" width="1.9339189189189188" height="1.9339189189189188" fill="#000000"/><rect x="359.82485635241545" y="497.35135135135135" width="1.9339189189189188" height="1.9339189189189188" fill="#000000"/><rect x="361.74377527133436" y="497.35135135135135" width="1.9339189189189188" height="1.9339189189189188" fill="#000000"/><rect x="363.6626941902533" y="497.35135135135135" width="1.9339189189189188" height="1.9339189189189188" fill="#000000"/><rect x="365.5816131091722" y="497.35135135135135" width="1.9339189189189188" height="1.9339189189189188" fill="#000000"/><rect x="369.41945094701003" y="497.35135135135135" width="1.9339189189189188" height="1.9339189189189188" fill="#000000"/><rect x="373.2572887848479" y="497.35135135135135" width="1.9339189189189188" height="1.9339189189189188" fill="#000000"/><rect x="375.1762077037668" y="497.35135135135135" width="1.9339189189189188" height="1.9339189189189188" fill="#000000"/><rect x="377.0951266226857" y="497.35135135135135" width="1.9339189189189188" height="1.9339189189189188" fill="#000000"/><rect x="380.9329644605236" y="497.35135135135135" width="1.9339189189189188" height="1.9339189189189188" fill="#000000"/><rect x="327.20323473079384" y="499.27027027027026" width="1.9339189189189188" height="1.9339189189189188" fill="#000000"/><rect x="338.7167482443073" y="499.27027027027026" width="1.9339189189189188" height="1.9339189189189188" fill="#000000"/><rect x="342.5545860821452" y="499.27027027027026" width="1.9339189189189188" height="1.9339189189189188" fill="#000000"/><rect x="344.4735050010641" y="499.27027027027026" width="1.9339189189189188" height="1.9339189189189188" fill="#000000"/><rect x="346.392423919983" y="499.27027027027026" width="1.9339189189189188" height="1.9339189189189188" fill="#000000"/><rect x="348.31134283890196" y="499.27027027027026" width="1.9339189189189188" height="1.9339189189189188" fill="#000000"/><rect x="350.23026175782087" y="499.27027027027026" width="1.9339189189189188" height="1.9339189189189188" fill="#000000"/><rect x="352.1491806767398" y="499.27027027027026" width="1.9339189189189188" height="1.9339189189189188" fill="#000000"/><rect x="354.0680995956587" y="499.27027027027026" width="1.9339189189189188" height="1.9339189189189188" fill="#000000"/><rect x="355.98701851457764" y="499.27027027027026" width="1.9339189189189188" height="1.9339189189189188" fill="#000000"/><rect x="359.82485635241545" y="499.27027027027026" width="1.9339189189189188" height="1.9339189189189188" fill="#000000"/><rect x="365.5816131091722" y="499.27027027027026" width="1.9339189189189188" height="1.9339189189189188" fill="#000000"/><rect x="369.41945094701003" y="499.27027027027026" width="1.9339189189189188" height="1.9339189189189188" fill="#000000"/><rect x="380.9329644605236" y="499.27027027027026" width="1.9339189189189188" height="1.9339189189189188" fill="#000000"/><rect x="327.20323473079384" y="501.18918918918916" width="1.9339189189189188" height="1.9339189189189188" fill="#000000"/><rect x="329.12215364971274" y="501.18918918918916" width="1.9339189189189188" height="1.9339189189189188" fill="#000000"/><rect x="331.04107256863165" y="501.18918918918916" width="1.9339189189189188" height="1.9339189189189188" fill="#000000"/><rect x="332.9599914875506" y="501.18918918918916" width="1.9339189189189188" height="1.9339189189189188" fill="#000000"/><rect x="334.8789104064695" y="501.18918918918916" width="1.9339189189189188" height="1.9339189189189188" fill="#000000"/><rect x="336.7978293253884" y="501.18918918918916" width="1.9339189189189188" height="1.9339189189189188" fill="#000000"/><rect x="338.7167482443073" y="501.18918918918916" width="1.9339189189189188" height="1.9339189189189188" fill="#000000"/><rect x="342.5545860821452" y="501.18918918918916" width="1.9339189189189188" height="1.9339189189189188" fill="#000000"/><rect x="346.392423919983" y="501.18918918918916" width="1.9339189189189188" height="1.9339189189189188" fill="#000000"/><rect x="350.23026175782087" y="501.18918918918916" width="1.9339189189189188" height="1.9339189189189188" fill="#000000"/><rect x="354.0680995956587" y="501.18918918918916" width="1.9339189189189188" height="1.9339189189189188" fill="#000000"/><rect x="357.90593743349655" y="501.18918918918916" width="1.9339189189189188" height="1.9339189189189188" fill="#000000"/><rect x="361.74377527133436" y="501.18918918918916" width="1.9339189189189188" height="1.9339189189189188" fill="#000000"/><rect x="365.5816131091722" y="501.18918918918916" width="1.9339189189189188" height="1.9339189189189188" fill="#000000"/><rect x="369.41945094701003" y="501.18918918918916" width="1.9339189189189188" height="1.9339189189189188" fill="#000000"/><rect x="371.33836986592894" y="501.18918918918916" width="1.9339189189189188" height="1.9339189189189188" fill="#000000"/><rect x="373.2572887848479" y="501.18918918918916" width="1.9339189189189188" height="1.9339189189189188" fill="#000000"/><rect x="375.1762077037668" y="501.18918918918916" width="1.9339189189189188" height="1.9339189189189188" fill="#000000"/><rect x="377.0951266226857" y="501.18918918918916" width="1.9339189189189188" height="1.9339189189189188" fill="#000000"/><rect x="379.0140455416047" y="501.18918918918916" width="1.9339189189189188" height="1.9339189189189188" fill="#000000"/><rect x="380.9329644605236" y="501.18918918918916" width="1.9339189189189188" height="1.9339189189189188" fill="#000000"/><rect x="342.5545860821452" y="503.1081081081081" width="1.9339189189189188" height="1.9339189189189188" fill="#000000"/><rect x="346.392423919983" y="503.1081081081081" width="1.9339189189189188" height="1.9339189189189188" fill="#000000"/><rect x="348.31134283890196" y="503.1081081081081" width="1.9339189189189188" height="1.9339189189189188" fill="#000000"/><rect x="352.1491806767398" y="503.1081081081081" width="1.9339189189189188" height="1.9339189189189188" fill="#000000"/><rect x="355.98701851457764" y="503.1081081081081" width="1.9339189189189188" height="1.9339189189189188" fill="#000000"/><rect x="357.90593743349655" y="503.1081081081081" width="1.9339189189189188" height="1.9339189189189188" fill="#000000"/><rect x="361.74377527133436" y="503.1081081081081" width="1.9339189189189188" height="1.9339189189189188" fill="#000000"/><rect x="365.5816131091722" y="503.1081081081081" width="1.9339189189189188" height="1.9339189189189188" fill="#000000"/><rect x="327.20323473079384" y="505.02702702702703" width="1.9339189189189188" height="1.9339189189189188" fill="#000000"/><rect x="331.04107256863165" y="505.02702702702703" width="1.9339189189189188" height="1.9339189189189188" fill="#000000"/><rect x="332.9599914875506" y="505.02702702702703" width="1.9339189189189188" height="1.9339189189189188" fill="#000000"/><rect x="334.8789104064695" y="505.02702702702703" width="1.9339189189189188" height="1.9339189189189188" fill="#000000"/><rect x="336.7978293253884" y="505.02702702702703" width="1.9339189189189188" height="1.9339189189189188" fill="#000000"/><rect x="338.7167482443073" y="505.02702702702703" width="1.9339189189189188" height="1.9339189189189188" fill="#000000"/><rect x="344.4735050010641" y="505.02702702702703" width="1.9339189189189188" height="1.9339189189189188" fill="#000000"/><rect x="348.31134283890196" y="505.02702702702703" width="1.9339189189189188" height="1.9339189189189188" fill="#000000"/><rect x="350.23026175782087" y="505.02702702702703" width="1.9339189189189188" height="1.9339189189189188" fill="#000000"/><rect x="354.0680995956587" y="505.02702702702703" width="1.9339189189189188" height="1.9339189189189188" fill="#000000"/><rect x="355.98701851457764" y="505.02702702702703" width="1.9339189189189188" height="1.9339189189189188" fill="#000000"/><rect x="357.90593743349655" y="505.02702702702703" width="1.9339189189189188" height="1.9339189189189188" fill="#000000"/><rect x="359.82485635241545" y="505.02702702702703" width="1.9339189189189188" height="1.9339189189189188" fill="#000000"/><rect x="369.41945094701003" y="505.02702702702703" width="1.9339189189189188" height="1.9339189189189188" fill="#000000"/><rect x="371.33836986592894" y="505.02702702702703" width="1.9339189189189188" height="1.9339189189189188" fill="#000000"/><rect x="373.2572887848479" y="505.02702702702703" width="1.9339189189189188" height="1.9339189189189188" fill="#000000"/><rect x="375.1762077037668" y="505.02702702702703" width="1.9339189189189188" height="1.9339189189189188" fill="#000000"/><rect x="377.0951266226857" y="505.02702702702703" width="1.9339189189189188" height="1.9339189189189188" fill="#000000"/><rect x="336.7978293253884" y="506.94594594594594" width="1.9339189189189188" height="1.9339189189189188" fill="#000000"/><rect x="340.6356671632263" y="506.94594594594594" width="1.9339189189189188" height="1.9339189189189188" fill="#000000"/><rect x="346.392423919983" y="506.94594594594594" width="1.9339189189189188" height="1.9339189189189188" fill="#000000"/><rect x="348.31134283890196" y="506.94594594594594" width="1.9339189189189188" height="1.9339189189189188" fill="#000000"/><rect x="350.23026175782087" y="506.94594594594594" width="1.9339189189189188" height="1.9339189189189188" fill="#000000"/><rect x="357.90593743349655" y="506.94594594594594" width="1.9339189189189188" height="1.9339189189189188" fill="#000000"/><rect x="363.6626941902533" y="506.94594594594594" width="1.9339189189189188" height="1.9339189189189188" fill="#000000"/><rect x="365.5816131091722" y="506.94594594594594" width="1.9339189189189188" height="1.9339189189189188" fill="#000000"/><rect x="367.50053202809113" y="506.94594594594594" width="1.9339189189189188" height="1.9339189189189188" fill="#000000"/><rect x="369.41945094701003" y="506.94594594594594" width="1.9339189189189188" height="1.9339189189189188" fill="#000000"/><rect x="371.33836986592894" y="506.94594594594594" width="1.9339189189189188" height="1.9339189189189188" fill="#000000"/><rect x="373.2572887848479" y="506.94594594594594" width="1.9339189189189188" height="1.9339189189189188" fill="#000000"/><rect x="380.9329644605236" y="506.94594594594594" width="1.9339189189189188" height="1.9339189189189188" fill="#000000"/><rect x="332.9599914875506" y="508.86486486486484" width="1.9339189189189188" height="1.9339189189189188" fill="#000000"/><rect x="338.7167482443073" y="508.86486486486484" width="1.9339189189189188" height="1.9339189189189188" fill="#000000"/><rect x="346.392423919983" y="508.86486486486484" width="1.9339189189189188" height="1.9339189189189188" fill="#000000"/><rect x="355.98701851457764" y="508.86486486486484" width="1.9339189189189188" height="1.9339189189189188" fill="#000000"/><rect x="357.90593743349655" y="508.86486486486484" width="1.9339189189189188" height="1.9339189189189188" fill="#000000"/><rect x="361.74377527133436" y="508.86486486486484" width="1.9339189189189188" height="1.9339189189189188" fill="#000000"/><rect x="369.41945094701003" y="508.86486486486484" width="1.9339189189189188" height="1.9339189189189188" fill="#000000"/><rect x="373.2572887848479" y="508.86486486486484" width="1.9339189189189188" height="1.9339189189189188" fill="#000000"/><rect x="334.8789104064695" y="510.7837837837838" width="1.9339189189189188" height="1.9339189189189188" fill="#000000"/><rect x="354.0680995956587" y="510.7837837837838" width="1.9339189189189188" height="1.9339189189189188" fill="#000000"/><rect x="361.74377527133436" y="510.7837837837838" width="1.9339189189189188" height="1.9339189189189188" fill="#000000"/><rect x="363.6626941902533" y="510.7837837837838" width="1.9339189189189188" height="1.9339189189189188" fill="#000000"/><rect x="369.41945094701003" y="510.7837837837838" width="1.9339189189189188" height="1.9339189189189188" fill="#000000"/><rect x="371.33836986592894" y="510.7837837837838" width="1.9339189189189188" height="1.9339189189189188" fill="#000000"/><rect x="373.2572887848479" y="510.7837837837838" width="1.9339189189189188" height="1.9339189189189188" fill="#000000"/><rect x="375.1762077037668" y="510.7837837837838" width="1.9339189189189188" height="1.9339189189189188" fill="#000000"/><rect x="379.0140455416047" y="510.7837837837838" width="1.9339189189189188" height="1.9339189189189188" fill="#000000"/><rect x="329.12215364971274" y="512.7027027027027" width="1.9339189189189188" height="1.9339189189189188" fill="#000000"/><rect x="331.04107256863165" y="512.7027027027027" width="1.9339189189189188" height="1.9339189189189188" fill="#000000"/><rect x="334.8789104064695" y="512.7027027027027" width="1.9339189189189188" height="1.9339189189189188" fill="#000000"/><rect x="338.7167482443073" y="512.7027027027027" width="1.9339189189189188" height="1.9339189189189188" fill="#000000"/><rect x="342.5545860821452" y="512.7027027027027" width="1.9339189189189188" height="1.9339189189189188" fill="#000000"/><rect x="350.23026175782087" y="512.7027027027027" width="1.9339189189189188" height="1.9339189189189188" fill="#000000"/><rect x="359.82485635241545" y="512.7027027027027" width="1.9339189189189188" height="1.9339189189189188" fill="#000000"/><rect x="363.6626941902533" y="512.7027027027027" width="1.9339189189189188" height="1.9339189189189188" fill="#000000"/><rect x="371.33836986592894" y="512.7027027027027" width="1.9339189189189188" height="1.9339189189189188" fill="#000000"/><rect x="375.1762077037668" y="512.7027027027027" width="1.9339189189189188" height="1.9339189189189188" fill="#000000"/><rect x="377.0951266226857" y="512.7027027027027" width="1.9339189189189188" height="1.9339189189189188" fill="#000000"/><rect x="327.20323473079384" y="514.6216216216217" width="1.9339189189189188" height="1.9339189189189188" fill="#000000"/><rect x="329.12215364971274" y="514.6216216216217" width="1.9339189189189188" height="1.9339189189189188" fill="#000000"/><rect x="332.9599914875506" y="514.6216216216217" width="1.9339189189189188" height="1.9339189189189188" fill="#000000"/><rect x="336.7978293253884" y="514.6216216216217" width="1.9339189189189188" height="1.9339189189189188" fill="#000000"/><rect x="340.6356671632263" y="514.6216216216217" width="1.9339189189189188" height="1.9339189189189188" fill="#000000"/><rect x="342.5545860821452" y="514.6216216216217" width="1.9339189189189188" height="1.9339189189189188" fill="#000000"/><rect x="346.392423919983" y="514.6216216216217" width="1.9339189189189188" height="1.9339189189189188" fill="#000000"/><rect x="348.31134283890196" y="514.6216216216217" width="1.9339189189189188" height="1.9339189189189188" fill="#000000"/><rect x="352.1491806767398" y="514.6216216216217" width="1.9339189189189188" height="1.9339189189189188" fill="#000000"/><rect x="354.0680995956587" y="514.6216216216217" width="1.9339189189189188" height="1.9339189189189188" fill="#000000"/><rect x="357.90593743349655" y="514.6216216216217" width="1.9339189189189188" height="1.9339189189189188" fill="#000000"/><rect x="359.82485635241545" y="514.6216216216217" width="1.9339189189189188" height="1.9339189189189188" fill="#000000"/><rect x="361.74377527133436" y="514.6216216216217" width="1.9339189189189188" height="1.9339189189189188" fill="#000000"/><rect x="363.6626941902533" y="514.6216216216217" width="1.9339189189189188" height="1.9339189189189188" fill="#000000"/><rect x="365.5816131091722" y="514.6216216216217" width="1.9339189189189188" height="1.9339189189189188" fill="#000000"/><rect x="367.50053202809113" y="514.6216216216217" width="1.9339189189189188" height="1.9339189189189188" fill="#000000"/><rect x="369.41945094701003" y="514.6216216216217" width="1.9339189189189188" height="1.9339189189189188" fill="#000000"/><rect x="371.33836986592894" y="514.6216216216217" width="1.9339189189189188" height="1.9339189189189188" fill="#000000"/><rect x="373.2572887848479" y="514.6216216216217" width="1.9339189189189188" height="1.9339189189189188" fill="#000000"/><rect x="380.9329644605236" y="514.6216216216217" width="1.9339189189189188" height="1.9339189189189188" fill="#000000"/><rect x="327.20323473079384" y="516.5405405405405" width="1.9339189189189188" height="1.9339189189189188" fill="#000000"/><rect x="332.9599914875506" y="516.5405405405405" width="1.9339189189189188" height="1.9339189189189188" fill="#000000"/><rect x="334.8789104064695" y="516.5405405405405" width="1.9339189189189188" height="1.9339189189189188" fill="#000000"/><rect x="336.7978293253884" y="516.5405405405405" width="1.9339189189189188" height="1.9339189189189188" fill="#000000"/><rect x="338.7167482443073" y="516.5405405405405" width="1.9339189189189188" height="1.9339189189189188" fill="#000000"/><rect x="340.6356671632263" y="516.5405405405405" width="1.9339189189189188" height="1.9339189189189188" fill="#000000"/><rect x="346.392423919983" y="516.5405405405405" width="1.9339189189189188" height="1.9339189189189188" fill="#000000"/><rect x="350.23026175782087" y="516.5405405405405" width="1.9339189189189188" height="1.9339189189189188" fill="#000000"/><rect x="352.1491806767398" y="516.5405405405405" width="1.9339189189189188" height="1.9339189189189188" fill="#000000"/><rect x="354.0680995956587" y="516.5405405405405" width="1.9339189189189188" height="1.9339189189189188" fill="#000000"/><rect x="355.98701851457764" y="516.5405405405405" width="1.9339189189189188" height="1.9339189189189188" fill="#000000"/><rect x="357.90593743349655" y="516.5405405405405" width="1.9339189189189188" height="1.9339189189189188" fill="#000000"/><rect x="365.5816131091722" y="516.5405405405405" width="1.9339189189189188" height="1.9339189189189188" fill="#000000"/><rect x="369.41945094701003" y="516.5405405405405" width="1.9339189189189188" height="1.9339189189189188" fill="#000000"/><rect x="371.33836986592894" y="516.5405405405405" width="1.9339189189189188" height="1.9339189189189188" fill="#000000"/><rect x="373.2572887848479" y="516.5405405405405" width="1.9339189189189188" height="1.9339189189189188" fill="#000000"/><rect x="375.1762077037668" y="516.5405405405405" width="1.9339189189189188" height="1.9339189189189188" fill="#000000"/><rect x="377.0951266226857" y="516.5405405405405" width="1.9339189189189188" height="1.9339189189189188" fill="#000000"/><rect x="327.20323473079384" y="518.4594594594595" width="1.9339189189189188" height="1.9339189189189188" fill="#000000"/><rect x="331.04107256863165" y="518.4594594594595" width="1.9339189189189188" height="1.9339189189189188" fill="#000000"/><rect x="334.8789104064695" y="518.4594594594595" width="1.9339189189189188" height="1.9339189189189188" fill="#000000"/><rect x="340.6356671632263" y="518.4594594594595" width="1.9339189189189188" height="1.9339189189189188" fill="#000000"/><rect x="346.392423919983" y="518.4594594594595" width="1.9339189189189188" height="1.9339189189189188" fill="#000000"/><rect x="352.1491806767398" y="518.4594594594595" width="1.9339189189189188" height="1.9339189189189188" fill="#000000"/><rect x="355.98701851457764" y="518.4594594594595" width="1.9339189189189188" height="1.9339189189189188" fill="#000000"/><rect x="361.74377527133436" y="518.4594594594595" width="1.9339189189189188" height="1.9339189189189188" fill="#000000"/><rect x="365.5816131091722" y="518.4594594594595" width="1.9339189189189188" height="1.9339189189189188" fill="#000000"/><rect x="371.33836986592894" y="518.4594594594595" width="1.9339189189189188" height="1.9339189189189188" fill="#000000"/><rect x="373.2572887848479" y="518.4594594594595" width="1.9339189189189188" height="1.9339189189189188" fill="#000000"/><rect x="379.0140455416047" y="518.4594594594595" width="1.9339189189189188" height="1.9339189189189188" fill="#000000"/><rect x="327.20323473079384" y="520.3783783783783" width="1.9339189189189188" height="1.9339189189189188" fill="#000000"/><rect x="329.12215364971274" y="520.3783783783783" width="1.9339189189189188" height="1.9339189189189188" fill="#000000"/><rect x="332.9599914875506" y="520.3783783783783" width="1.9339189189189188" height="1.9339189189189188" fill="#000000"/><rect x="334.8789104064695" y="520.3783783783783" width="1.9339189189189188" height="1.9339189189189188" fill="#000000"/><rect x="338.7167482443073" y="520.3783783783783" width="1.9339189189189188" height="1.9339189189189188" fill="#000000"/><rect x="344.4735050010641" y="520.3783783783783" width="1.9339189189189188" height="1.9339189189189188" fill="#000000"/><rect x="346.392423919983" y="520.3783783783783" width="1.9339189189189188" height="1.9339189189189188" fill="#000000"/><rect x="350.23026175782087" y="520.3783783783783" width="1.9339189189189188" height="1.9339189189189188" fill="#000000"/><rect x="354.0680995956587" y="520.3783783783783" width="1.9339189189189188" height="1.9339189189189188" fill="#000000"/><rect x="355.98701851457764" y="520.3783783783783" width="1.9339189189189188" height="1.9339189189189188" fill="#000000"/><rect x="359.82485635241545" y="520.3783783783783" width="1.9339189189189188" height="1.9339189189189188" fill="#000000"/><rect x="361.74377527133436" y="520.3783783783783" width="1.9339189189189188" height="1.9339189189189188" fill="#000000"/><rect x="365.5816131091722" y="520.3783783783783" width="1.9339189189189188" height="1.9339189189189188" fill="#000000"/><rect x="371.33836986592894" y="520.3783783783783" width="1.9339189189189188" height="1.9339189189189188" fill="#000000"/><rect x="375.1762077037668" y="520.3783783783783" width="1.9339189189189188" height="1.9339189189189188" fill="#000000"/><rect x="377.0951266226857" y="520.3783783783783" width="1.9339189189189188" height="1.9339189189189188" fill="#000000"/><rect x="327.20323473079384" y="522.2972972972973" width="1.9339189189189188" height="1.9339189189189188" fill="#000000"/><rect x="329.12215364971274" y="522.2972972972973" width="1.9339189189189188" height="1.9339189189189188" fill="#000000"/><rect x="336.7978293253884" y="522.2972972972973" width="1.9339189189189188" height="1.9339189189189188" fill="#000000"/><rect x="342.5545860821452" y="522.2972972972973" width="1.9339189189189188" height="1.9339189189189188" fill="#000000"/><rect x="344.4735050010641" y="522.2972972972973" width="1.9339189189189188" height="1.9339189189189188" fill="#000000"/><rect x="346.392423919983" y="522.2972972972973" width="1.9339189189189188" height="1.9339189189189188" fill="#000000"/><rect x="348.31134283890196" y="522.2972972972973" width="1.9339189189189188" height="1.9339189189189188" fill="#000000"/><rect x="357.90593743349655" y="522.2972972972973" width="1.9339189189189188" height="1.9339189189189188" fill="#000000"/><rect x="359.82485635241545" y="522.2972972972973" width="1.9339189189189188" height="1.9339189189189188" fill="#000000"/><rect x="361.74377527133436" y="522.2972972972973" width="1.9339189189189188" height="1.9339189189189188" fill="#000000"/><rect x="363.6626941902533" y="522.2972972972973" width="1.9339189189189188" height="1.9339189189189188" fill="#000000"/><rect x="365.5816131091722" y="522.2972972972973" width="1.9339189189189188" height="1.9339189189189188" fill="#000000"/><rect x="367.50053202809113" y="522.2972972972973" width="1.9339189189189188" height="1.9339189189189188" fill="#000000"/><rect x="369.41945094701003" y="522.2972972972973" width="1.9339189189189188" height="1.9339189189189188" fill="#000000"/><rect x="371.33836986592894" y="522.2972972972973" width="1.9339189189189188" height="1.9339189189189188" fill="#000000"/><rect x="373.2572887848479" y="522.2972972972973" width="1.9339189189189188" height="1.9339189189189188" fill="#000000"/><rect x="377.0951266226857" y="522.2972972972973" width="1.9339189189189188" height="1.9339189189189188" fill="#000000"/><rect x="380.9329644605236" y="522.2972972972973" width="1.9339189189189188" height="1.9339189189189188" fill="#000000"/><rect x="327.20323473079384" y="524.2162162162163" width="1.9339189189189188" height="1.9339189189189188" fill="#000000"/><rect x="331.04107256863165" y="524.2162162162163" width="1.9339189189189188" height="1.9339189189189188" fill="#000000"/><rect x="332.9599914875506" y="524.2162162162163" width="1.9339189189189188" height="1.9339189189189188" fill="#000000"/><rect x="334.8789104064695" y="524.2162162162163" width="1.9339189189189188" height="1.9339189189189188" fill="#000000"/><rect x="336.7978293253884" y="524.2162162162163" width="1.9339189189189188" height="1.9339189189189188" fill="#000000"/><rect x="338.7167482443073" y="524.2162162162163" width="1.9339189189189188" height="1.9339189189189188" fill="#000000"/><rect x="340.6356671632263" y="524.2162162162163" width="1.9339189189189188" height="1.9339189189189188" fill="#000000"/><rect x="346.392423919983" y="524.2162162162163" width="1.9339189189189188" height="1.9339189189189188" fill="#000000"/><rect x="350.23026175782087" y="524.2162162162163" width="1.9339189189189188" height="1.9339189189189188" fill="#000000"/><rect x="355.98701851457764" y="524.2162162162163" width="1.9339189189189188" height="1.9339189189189188" fill="#000000"/><rect x="359.82485635241545" y="524.2162162162163" width="1.9339189189189188" height="1.9339189189189188" fill="#000000"/><rect x="367.50053202809113" y="524.2162162162163" width="1.9339189189189188" height="1.9339189189189188" fill="#000000"/><rect x="371.33836986592894" y="524.2162162162163" width="1.9339189189189188" height="1.9339189189189188" fill="#000000"/><rect x="373.2572887848479" y="524.2162162162163" width="1.9339189189189188" height="1.9339189189189188" fill="#000000"/><rect x="377.0951266226857" y="524.2162162162163" width="1.9339189189189188" height="1.9339189189189188" fill="#000000"/><rect x="327.20323473079384" y="526.1351351351351" width="1.9339189189189188" height="1.9339189189189188" fill="#000000"/><rect x="331.04107256863165" y="526.1351351351351" width="1.9339189189189188" height="1.9339189189189188" fill="#000000"/><rect x="340.6356671632263" y="526.1351351351351" width="1.9339189189189188" height="1.9339189189189188" fill="#000000"/><rect x="344.4735050010641" y="526.1351351351351" width="1.9339189189189188" height="1.9339189189189188" fill="#000000"/><rect x="348.31134283890196" y="526.1351351351351" width="1.9339189189189188" height="1.9339189189189188" fill="#000000"/><rect x="350.23026175782087" y="526.1351351351351" width="1.9339189189189188" height="1.9339189189189188" fill="#000000"/><rect x="354.0680995956587" y="526.1351351351351" width="1.9339189189189188" height="1.9339189189189188" fill="#000000"/><rect x="355.98701851457764" y="526.1351351351351" width="1.9339189189189188" height="1.9339189189189188" fill="#000000"/><rect x="357.90593743349655" y="526.1351351351351" width="1.9339189189189188" height="1.9339189189189188" fill="#000000"/><rect x="363.6626941902533" y="526.1351351351351" width="1.9339189189189188" height="1.9339189189189188" fill="#000000"/><rect x="373.2572887848479" y="526.1351351351351" width="1.9339189189189188" height="1.9339189189189188" fill="#000000"/><rect x="379.0140455416047" y="526.1351351351351" width="1.9339189189189188" height="1.9339189189189188" fill="#000000"/><rect x="327.20323473079384" y="528.0540540540541" width="1.9339189189189188" height="1.9339189189189188" fill="#000000"/><rect x="331.04107256863165" y="528.0540540540541" width="1.9339189189189188" height="1.9339189189189188" fill="#000000"/><rect x="332.9599914875506" y="528.0540540540541" width="1.9339189189189188" height="1.9339189189189188" fill="#000000"/><rect x="334.8789104064695" y="528.0540540540541" width="1.9339189189189188" height="1.9339189189189188" fill="#000000"/><rect x="336.7978293253884" y="528.0540540540541" width="1.9339189189189188" height="1.9339189189189188" fill="#000000"/><rect x="338.7167482443073" y="528.0540540540541" width="1.9339189189189188" height="1.9339189189189188" fill="#000000"/><rect x="340.6356671632263" y="528.0540540540541" width="1.9339189189189188" height="1.9339189189189188" fill="#000000"/><rect x="346.392423919983" y="528.0540540540541" width="1.9339189189189188" height="1.9339189189189188" fill="#000000"/><rect x="355.98701851457764" y="528.0540540540541" width="1.9339189189189188" height="1.9339189189189188" fill="#000000"/><rect x="357.90593743349655" y="528.0540540540541" width="1.9339189189189188" height="1.9339189189189188" fill="#000000"/><rect x="359.82485635241545" y="528.0540540540541" width="1.9339189189189188" height="1.9339189189189188" fill="#000000"/><rect x="361.74377527133436" y="528.0540540540541" width="1.9339189189189188" height="1.9339189189189188" fill="#000000"/><rect x="363.6626941902533" y="528.0540540540541" width="1.9339189189189188" height="1.9339189189189188" fill="#000000"/><rect x="365.5816131091722" y="528.0540540540541" width="1.9339189189189188" height="1.9339189189189188" fill="#000000"/><rect x="367.50053202809113" y="528.0540540540541" width="1.9339189189189188" height="1.9339189189189188" fill="#000000"/><rect x="369.41945094701003" y="528.0540540540541" width="1.9339189189189188" height="1.9339189189189188" fill="#000000"/><rect x="371.33836986592894" y="528.0540540540541" width="1.9339189189189188" height="1.9339189189189188" fill="#000000"/><rect x="373.2572887848479" y="528.0540540540541" width="1.9339189189189188" height="1.9339189189189188" fill="#000000"/><rect x="377.0951266226857" y="528.0540540540541" width="1.9339189189189188" height="1.9339189189189188" fill="#000000"/><rect x="379.0140455416047" y="528.0540540540541" width="1.9339189189189188" height="1.9339189189189188" fill="#000000"/><rect x="380.9329644605236" y="528.0540540540541" width="1.9339189189189188" height="1.9339189189189188" fill="#000000"/><rect x="342.5545860821452" y="529.9729729729729" width="1.9339189189189188" height="1.9339189189189188" fill="#000000"/><rect x="348.31134283890196" y="529.9729729729729" width="1.9339189189189188" height="1.9339189189189188" fill="#000000"/><rect x="352.1491806767398" y="529.9729729729729" width="1.9339189189189188" height="1.9339189189189188" fill="#000000"/><rect x="354.0680995956587" y="529.9729729729729" width="1.9339189189189188" height="1.9339189189189188" fill="#000000"/><rect x="357.90593743349655" y="529.9729729729729" width="1.9339189189189188" height="1.9339189189189188" fill="#000000"/><rect x="361.74377527133436" y="529.9729729729729" width="1.9339189189189188" height="1.9339189189189188" fill="#000000"/><rect x="363.6626941902533" y="529.9729729729729" width="1.9339189189189188" height="1.9339189189189188" fill="#000000"/><rect x="365.5816131091722" y="529.9729729729729" width="1.9339189189189188" height="1.9339189189189188" fill="#000000"/><rect x="373.2572887848479" y="529.9729729729729" width="1.9339189189189188" height="1.9339189189189188" fill="#000000"/><rect x="375.1762077037668" y="529.9729729729729" width="1.9339189189189188" height="1.9339189189189188" fill="#000000"/><rect x="377.0951266226857" y="529.9729729729729" width="1.9339189189189188" height="1.9339189189189188" fill="#000000"/><rect x="379.0140455416047" y="529.9729729729729" width="1.9339189189189188" height="1.9339189189189188" fill="#000000"/><rect x="380.9329644605236" y="529.9729729729729" width="1.9339189189189188" height="1.9339189189189188" fill="#000000"/><rect x="327.20323473079384" y="531.8918918918919" width="1.9339189189189188" height="1.9339189189189188" fill="#000000"/><rect x="329.12215364971274" y="531.8918918918919" width="1.9339189189189188" height="1.9339189189189188" fill="#000000"/><rect x="331.04107256863165" y="531.8918918918919" width="1.9339189189189188" height="1.9339189189189188" fill="#000000"/><rect x="332.9599914875506" y="531.8918918918919" width="1.9339189189189188" height="1.9339189189189188" fill="#000000"/><rect x="334.8789104064695" y="531.8918918918919" width="1.9339189189189188" height="1.9339189189189188" fill="#000000"/><rect x="336.7978293253884" y="531.8918918918919" width="1.9339189189189188" height="1.9339189189189188" fill="#000000"/><rect x="338.7167482443073" y="531.8918918918919" width="1.9339189189189188" height="1.9339189189189188" fill="#000000"/><rect x="346.392423919983" y="531.8918918918919" width="1.9339189189189188" height="1.9339189189189188" fill="#000000"/><rect x="348.31134283890196" y="531.8918918918919" width="1.9339189189189188" height="1.9339189189189188" fill="#000000"/><rect x="352.1491806767398" y="531.8918918918919" width="1.9339189189189188" height="1.9339189189189188" fill="#000000"/><rect x="354.0680995956587" y="531.8918918918919" width="1.9339189189189188" height="1.9339189189189188" fill="#000000"/><rect x="355.98701851457764" y="531.8918918918919" width="1.9339189189189188" height="1.9339189189189188" fill="#000000"/><rect x="359.82485635241545" y="531.8918918918919" width="1.9339189189189188" height="1.9339189189189188" fill="#000000"/><rect x="361.74377527133436" y="531.8918918918919" width="1.9339189189189188" height="1.9339189189189188" fill="#000000"/><rect x="363.6626941902533" y="531.8918918918919" width="1.9339189189189188" height="1.9339189189189188" fill="#000000"/><rect x="365.5816131091722" y="531.8918918918919" width="1.9339189189189188" height="1.9339189189189188" fill="#000000"/><rect x="369.41945094701003" y="531.8918918918919" width="1.9339189189189188" height="1.9339189189189188" fill="#000000"/><rect x="373.2572887848479" y="531.8918918918919" width="1.9339189189189188" height="1.9339189189189188" fill="#000000"/><rect x="375.1762077037668" y="531.8918918918919" width="1.9339189189189188" height="1.9339189189189188" fill="#000000"/><rect x="377.0951266226857" y="531.8918918918919" width="1.9339189189189188" height="1.9339189189189188" fill="#000000"/><rect x="327.20323473079384" y="533.8108108108108" width="1.9339189189189188" height="1.9339189189189188" fill="#000000"/><rect x="338.7167482443073" y="533.8108108108108" width="1.9339189189189188" height="1.9339189189189188" fill="#000000"/><rect x="342.5545860821452" y="533.8108108108108" width="1.9339189189189188" height="1.9339189189189188" fill="#000000"/><rect x="344.4735050010641" y="533.8108108108108" width="1.9339189189189188" height="1.9339189189189188" fill="#000000"/><rect x="346.392423919983" y="533.8108108108108" width="1.9339189189189188" height="1.9339189189189188" fill="#000000"/><rect x="348.31134283890196" y="533.8108108108108" width="1.9339189189189188" height="1.9339189189189188" fill="#000000"/><rect x="350.23026175782087" y="533.8108108108108" width="1.9339189189189188" height="1.9339189189189188" fill="#000000"/><rect x="352.1491806767398" y="533.8108108108108" width="1.9339189189189188" height="1.9339189189189188" fill="#000000"/><rect x="357.90593743349655" y="533.8108108108108" width="1.9339189189189188" height="1.9339189189189188" fill="#000000"/><rect x="363.6626941902533" y="533.8108108108108" width="1.9339189189189188" height="1.9339189189189188" fill="#000000"/><rect x="365.5816131091722" y="533.8108108108108" width="1.9339189189189188" height="1.9339189189189188" fill="#000000"/><rect x="373.2572887848479" y="533.8108108108108" width="1.9339189189189188" height="1.9339189189189188" fill="#000000"/><rect x="380.9329644605236" y="533.8108108108108" width="1.9339189189189188" height="1.9339189189189188" fill="#000000"/><rect x="327.20323473079384" y="535.7297297297297" width="1.9339189189189188" height="1.9339189189189188" fill="#000000"/><rect x="331.04107256863165" y="535.7297297297297" width="1.9339189189189188" height="1.9339189189189188" fill="#000000"/><rect x="332.9599914875506" y="535.7297297297297" width="1.9339189189189188" height="1.9339189189189188" fill="#000000"/><rect x="334.8789104064695" y="535.7297297297297" width="1.9339189189189188" height="1.9339189189189188" fill="#000000"/><rect x="338.7167482443073" y="535.7297297297297" width="1.9339189189189188" height="1.9339189189189188" fill="#000000"/><rect x="342.5545860821452" y="535.7297297297297" width="1.9339189189189188" height="1.9339189189189188" fill="#000000"/><rect x="344.4735050010641" y="535.7297297297297" width="1.9339189189189188" height="1.9339189189189188" fill="#000000"/><rect x="346.392423919983" y="535.7297297297297" width="1.9339189189189188" height="1.9339189189189188" fill="#000000"/><rect x="348.31134283890196" y="535.7297297297297" width="1.9339189189189188" height="1.9339189189189188" fill="#000000"/><rect x="350.23026175782087" y="535.7297297297297" width="1.9339189189189188" height="1.9339189189189188" fill="#000000"/><rect x="354.0680995956587" y="535.7297297297297" width="1.9339189189189188" height="1.9339189189189188" fill="#000000"/><rect x="359.82485635241545" y="535.7297297297297" width="1.9339189189189188" height="1.9339189189189188" fill="#000000"/><rect x="365.5816131091722" y="535.7297297297297" width="1.9339189189189188" height="1.9339189189189188" fill="#000000"/><rect x="367.50053202809113" y="535.7297297297297" width="1.9339189189189188" height="1.9339189189189188" fill="#000000"/><rect x="369.41945094701003" y="535.7297297297297" width="1.9339189189189188" height="1.9339189189189188" fill="#000000"/><rect x="371.33836986592894" y="535.7297297297297" width="1.9339189189189188" height="1.9339189189189188" fill="#000000"/><rect x="373.2572887848479" y="535.7297297297297" width="1.9339189189189188" height="1.9339189189189188" fill="#000000"/><rect x="377.0951266226857" y="535.7297297297297" width="1.9339189189189188" height="1.9339189189189188" fill="#000000"/><rect x="379.0140455416047" y="535.7297297297297" width="1.9339189189189188" height="1.9339189189189188" fill="#000000"/><rect x="327.20323473079384" y="537.6486486486486" width="1.9339189189189188" height="1.9339189189189188" fill="#000000"/><rect x="331.04107256863165" y="537.6486486486486" width="1.9339189189189188" height="1.9339189189189188" fill="#000000"/><rect x="332.9599914875506" y="537.6486486486486" width="1.9339189189189188" height="1.9339189189189188" fill="#000000"/><rect x="334.8789104064695" y="537.6486486486486" width="1.9339189189189188" height="1.9339189189189188" fill="#000000"/><rect x="338.7167482443073" y="537.6486486486486" width="1.9339189189189188" height="1.9339189189189188" fill="#000000"/><rect x="342.5545860821452" y="537.6486486486486" width="1.9339189189189188" height="1.9339189189189188" fill="#000000"/><rect x="344.4735050010641" y="537.6486486486486" width="1.9339189189189188" height="1.9339189189189188" fill="#000000"/><rect x="348.31134283890196" y="537.6486486486486" width="1.9339189189189188" height="1.9339189189189188" fill="#000000"/><rect x="350.23026175782087" y="537.6486486486486" width="1.9339189189189188" height="1.9339189189189188" fill="#000000"/><rect x="357.90593743349655" y="537.6486486486486" width="1.9339189189189188" height="1.9339189189189188" fill="#000000"/><rect x="359.82485635241545" y="537.6486486486486" width="1.9339189189189188" height="1.9339189189189188" fill="#000000"/><rect x="361.74377527133436" y="537.6486486486486" width="1.9339189189189188" height="1.9339189189189188" fill="#000000"/><rect x="363.6626941902533" y="537.6486486486486" width="1.9339189189189188" height="1.9339189189189188" fill="#000000"/><rect x="375.1762077037668" y="537.6486486486486" width="1.9339189189189188" height="1.9339189189189188" fill="#000000"/><rect x="377.0951266226857" y="537.6486486486486" width="1.9339189189189188" height="1.9339189189189188" fill="#000000"/><rect x="379.0140455416047" y="537.6486486486486" width="1.9339189189189188" height="1.9339189189189188" fill="#000000"/><rect x="380.9329644605236" y="537.6486486486486" width="1.9339189189189188" height="1.9339189189189188" fill="#000000"/><rect x="327.20323473079384" y="539.5675675675676" width="1.9339189189189188" height="1.9339189189189188" fill="#000000"/><rect x="331.04107256863165" y="539.5675675675676" width="1.9339189189189188" height="1.9339189189189188" fill="#000000"/><rect x="332.9599914875506" y="539.5675675675676" width="1.9339189189189188" height="1.9339189189189188" fill="#000000"/><rect x="334.8789104064695" y="539.5675675675676" width="1.9339189189189188" height="1.9339189189189188" fill="#000000"/><rect x="338.7167482443073" y="539.5675675675676" width="1.9339189189189188" height="1.9339189189189188" fill="#000000"/><rect x="342.5545860821452" y="539.5675675675676" width="1.9339189189189188" height="1.9339189189189188" fill="#000000"/><rect x="344.4735050010641" y="539.5675675675676" width="1.9339189189189188" height="1.9339189189189188" fill="#000000"/><rect x="346.392423919983" y="539.5675675675676" width="1.9339189189189188" height="1.9339189189189188" fill="#000000"/><rect x="348.31134283890196" y="539.5675675675676" width="1.9339189189189188" height="1.9339189189189188" fill="#000000"/><rect x="354.0680995956587" y="539.5675675675676" width="1.9339189189189188" height="1.9339189189189188" fill="#000000"/><rect x="355.98701851457764" y="539.5675675675676" width="1.9339189189189188" height="1.9339189189189188" fill="#000000"/><rect x="357.90593743349655" y="539.5675675675676" width="1.9339189189189188" height="1.9339189189189188" fill="#000000"/><rect x="359.82485635241545" y="539.5675675675676" width="1.9339189189189188" height="1.9339189189189188" fill="#000000"/><rect x="361.74377527133436" y="539.5675675675676" width="1.9339189189189188" height="1.9339189189189188" fill="#000000"/><rect x="365.5816131091722" y="539.5675675675676" width="1.9339189189189188" height="1.9339189189189188" fill="#000000"/><rect x="369.41945094701003" y="539.5675675675676" width="1.9339189189189188" height="1.9339189189189188" fill="#000000"/><rect x="371.33836986592894" y="539.5675675675676" width="1.9339189189189188" height="1.9339189189189188" fill="#000000"/><rect x="373.2572887848479" y="539.5675675675676" width="1.9339189189189188" height="1.9339189189189188" fill="#000000"/><rect x="375.1762077037668" y="539.5675675675676" width="1.9339189189189188" height="1.9339189189189188" fill="#000000"/><rect x="377.0951266226857" y="539.5675675675676" width="1.9339189189189188" height="1.9339189189189188" fill="#000000"/><rect x="379.0140455416047" y="539.5675675675676" width="1.9339189189189188" height="1.9339189189189188" fill="#000000"/><rect x="327.20323473079384" y="541.4864864864865" width="1.9339189189189188" height="1.9339189189189188" fill="#000000"/><rect x="338.7167482443073" y="541.4864864864865" width="1.9339189189189188" height="1.9339189189189188" fill="#000000"/><rect x="346.392423919983" y="541.4864864864865" width="1.9339189189189188" height="1.9339189189189188" fill="#000000"/><rect x="348.31134283890196" y="541.4864864864865" width="1.9339189189189188" height="1.9339189189189188" fill="#000000"/><rect x="350.23026175782087" y="541.4864864864865" width="1.9339189189189188" height="1.9339189189189188" fill="#000000"/><rect x="357.90593743349655" y="541.4864864864865" width="1.9339189189189188" height="1.9339189189189188" fill="#000000"/><rect x="363.6626941902533" y="541.4864864864865" width="1.9339189189189188" height="1.9339189189189188" fill="#000000"/><rect x="365.5816131091722" y="541.4864864864865" width="1.9339189189189188" height="1.9339189189189188" fill="#000000"/><rect x="375.1762077037668" y="541.4864864864865" width="1.9339189189189188" height="1.9339189189189188" fill="#000000"/><rect x="379.0140455416047" y="541.4864864864865" width="1.9339189189189188" height="1.9339189189189188" fill="#000000"/><rect x="327.20323473079384" y="543.4054054054054" width="1.9339189189189188" height="1.9339189189189188" fill="#000000"/><rect x="329.12215364971274" y="543.4054054054054" width="1.9339189189189188" height="1.9339189189189188" fill="#000000"/><rect x="331.04107256863165" y="543.4054054054054" width="1.9339189189189188" height="1.9339189189189188" fill="#000000"/><rect x="332.9599914875506" y="543.4054054054054" width="1.9339189189189188" height="1.9339189189189188" fill="#000000"/><rect x="334.8789104064695" y="543.4054054054054" width="1.9339189189189188" height="1.9339189189189188" fill="#000000"/><rect x="336.7978293253884" y="543.4054054054054" width="1.9339189189189188" height="1.9339189189189188" fill="#000000"/><rect x="338.7167482443073" y="543.4054054054054" width="1.9339189189189188" height="1.9339189189189188" fill="#000000"/><rect x="342.5545860821452" y="543.4054054054054" width="1.9339189189189188" height="1.9339189189189188" fill="#000000"/><rect x="344.4735050010641" y="543.4054054054054" width="1.9339189189189188" height="1.9339189189189188" fill="#000000"/><rect x="354.0680995956587" y="543.4054054054054" width="1.9339189189189188" height="1.9339189189189188" fill="#000000"/><rect x="359.82485635241545" y="543.4054054054054" width="1.9339189189189188" height="1.9339189189189188" fill="#000000"/><rect x="363.6626941902533" y="543.4054054054054" width="1.9339189189189188" height="1.9339189189189188" fill="#000000"/><rect x="367.50053202809113" y="543.4054054054054" width="1.9339189189189188" height="1.9339189189189188" fill="#000000"/><rect x="375.1762077037668" y="543.4054054054054" width="1.9339189189189188" height="1.9339189189189188" fill="#000000"/><rect x="377.0951266226857" y="543.4054054054054" width="1.9339189189189188" height="1.9339189189189188" fill="#000000"/></svg>